# xmcd
#
# Track frame offsets: 
#        182
#        13402
#        25177
#        39142
#        53192
#        67907
#        78655
#        92657
#        106795
#        127030
#        139727
#        150815
#        164177
#        175342
#        188612
#        200167
#        213805
#        223847
#
# Disc length: 3143 seconds
#
# Revision: 5
# Processed by: cddbd v1.5.2PL0 Copyright (c) Steve Scherf et al.
# Submitted via: ExactAudioCopyFreeDBPlugin 1.0
#
DISCID=f80c4512
DTITLE=Fulson, Lowell - West Coast Blues - The Blues Collection 22
DYEAR=1995
DGENRE=Blues
TTITLE0=Do me right
TTITLE1=(It) Took a long time
TTITLE2=Tollin' bells
TTITLE3=Someday baby
TTITLE4=I want to make love to you
TTITLE5=Coming home (someday)
TTITLE6=Have you changed your mind?
TTITLE7=Worry, worry
TTITLE8=I want to know
TTITLE9=I'm glad you reconsidered
TTITLE10=Blue shadows
TTITLE11=Hung down head
TTITLE12=So many tears
TTITLE13=Pay day blues
TTITLE14=Why don't you write me?
TTITLE15=Blue soul
TTITLE16=Shed no tears
TTITLE17=Trouble with the blues
EXTD=
EXTT0=
EXTT1=
EXTT2=
EXTT3=
EXTT4=
EXTT5=
EXTT6=
EXTT7=
EXTT8=
EXTT9=
EXTT10=
EXTT11=
EXTT12=
EXTT13=
EXTT14=
EXTT15=
EXTT16=
EXTT17=
PLAYORDER=
